<svg xmlns="http://www.w3.org/2000/svg" viewBox="0 0 400 300">
  <defs>
    <linearGradient id="river" x1="0" y1="0" x2="1" y2="1">
      <stop offset="0" stop-color="#4fb3d9"/>
      <stop offset="1" stop-color="#2a86ab"/>
    </linearGradient>
  </defs>
  <rect width="400" height="300" fill="#6fa15a"/>
  <path d="M0,40 Q120,90 90,150 Q60,210 180,240 Q280,265 260,300 L400,300 L400,0 L0,0 Z" fill="#5f8f4e"/>
  <path d="M-20,60 Q110,110 80,170 Q50,225 190,255 Q290,278 270,320" fill="none" stroke="url(#river)" stroke-width="34" stroke-linecap="round"/>
  <g fill="#3d6529">
    <ellipse cx="60" cy="40" rx="16" ry="8"/>
    <ellipse cx="150" cy="70" rx="14" ry="7"/>
    <ellipse cx="320" cy="230" rx="18" ry="9"/>
    <ellipse cx="340" cy="60" rx="14" ry="7"/>
  </g>
  <rect x="18" y="18" width="364" height="264" fill="none" stroke="#fffaf0" stroke-width="3" stroke-dasharray="10 8"/>
</svg>
