<svg xmlns="http://www.w3.org/2000/svg" viewBox="0 0 400 300">
  <rect width="400" height="300" fill="#c9b98a"/>
  <g stroke="#b7a677" stroke-width="1">
    <line x1="0" y1="40" x2="400" y2="40"/>
    <line x1="0" y1="80" x2="400" y2="80"/>
    <line x1="0" y1="120" x2="400" y2="120"/>
    <line x1="0" y1="160" x2="400" y2="160"/>
    <line x1="0" y1="200" x2="400" y2="200"/>
    <line x1="0" y1="240" x2="400" y2="240"/>
    <line x1="40" y1="0" x2="40" y2="300"/>
    <line x1="120" y1="0" x2="120" y2="300"/>
    <line x1="200" y1="0" x2="200" y2="300"/>
    <line x1="280" y1="0" x2="280" y2="300"/>
    <line x1="360" y1="0" x2="360" y2="300"/>
  </g>
  <g fill="#8a6a3e">
    <rect x="16" y="16" width="8" height="24"/>
    <rect x="376" y="16" width="8" height="24"/>
    <rect x="16" y="260" width="8" height="24"/>
    <rect x="376" y="260" width="8" height="24"/>
  </g>
  <rect x="18" y="18" width="364" height="264" fill="none" stroke="#5b4c2e" stroke-width="3" stroke-dasharray="10 8"/>
</svg>
